<svg width="34" height="29" viewBox="0 0 34 29" fill="none" xmlns="http://www.w3.org/2000/svg">
<g clip-path="url(#clip0_12_64)">
<path d="M12.5447 14.9546C12.5447 12.3774 14.6625 10.2875 17.2756 10.2875C19.8888 10.2875 22.0077 12.3774 22.0077 14.9546C22.0077 17.5318 19.8888 19.6216 17.2756 19.6216C14.6625 19.6216 12.5447 17.5318 12.5447 14.9546ZM9.98654 14.9546C9.98654 18.925 13.2498 22.1434 17.2756 22.1434C21.3014 22.1434 24.5647 18.925 24.5647 14.9546C24.5647 10.9842 21.3014 7.76574 17.2756 7.76574C13.2498 7.76574 9.98654 10.9842 9.98654 14.9546ZM23.1498 7.48076C23.1498 8.40806 23.9123 9.16121 24.8537 9.16121C25.7939 9.16121 26.5575 8.40806 26.5575 7.48076C26.5575 6.55346 25.795 5.80144 24.8537 5.80144C23.9123 5.80144 23.1498 6.55346 23.1498 7.48076ZM11.5402 26.3502C10.1562 26.288 9.40405 26.0607 8.90412 25.8685C8.24137 25.614 7.76897 25.311 7.27133 24.8213C6.77484 24.3316 6.4664 23.8657 6.20956 23.2121C6.01463 22.719 5.78416 21.9772 5.7211 20.6123C5.6523 19.1365 5.63854 18.6932 5.63854 14.9546C5.63854 11.216 5.65345 10.7738 5.7211 9.29692C5.78416 7.93197 6.01578 7.19126 6.20956 6.69708C6.46755 6.04344 6.77484 5.57753 7.27133 5.08674C7.76782 4.59708 8.24023 4.29288 8.90412 4.03957C9.40405 3.84732 10.1562 3.62002 11.5402 3.55782C13.0366 3.48997 13.486 3.4764 17.2756 3.4764C21.0664 3.4764 21.5147 3.4911 23.0122 3.55782C24.3962 3.62002 25.1472 3.84845 25.6483 4.03957C26.311 4.29288 26.7834 4.59708 27.2811 5.08674C27.7776 5.5764 28.0848 6.04344 28.3428 6.69708C28.5378 7.19013 28.7682 7.93197 28.8313 9.29692C28.9001 10.7738 28.9139 11.216 28.9139 14.9546C28.9139 18.6921 28.9001 19.1354 28.8313 20.6123C28.7682 21.9772 28.5366 22.719 28.3428 23.2121C28.0848 23.8657 27.7776 24.3316 27.2811 24.8213C26.7846 25.311 26.311 25.614 25.6483 25.8685C25.1483 26.0607 24.3962 26.288 23.0122 26.3502C21.5158 26.4181 21.0664 26.4316 17.2756 26.4316C13.486 26.4316 13.0366 26.4181 11.5402 26.3502ZM11.4233 1.0394C9.91201 1.10726 8.88004 1.3436 7.97765 1.68965C7.0443 2.047 6.25313 2.52648 5.46311 3.30451C4.67423 4.08254 4.18806 4.86283 3.82573 5.78448C3.47486 6.67446 3.23522 7.69223 3.16642 9.1827C3.09647 10.6754 3.08042 11.1527 3.08042 14.9546C3.08042 18.7565 3.09647 19.2337 3.16642 20.7265C3.23522 22.2169 3.47486 23.2347 3.82573 24.1247C4.18806 25.0452 4.67308 25.8266 5.46311 26.6047C6.25198 27.3827 7.04315 27.8611 7.97765 28.2195C8.88119 28.5656 9.91201 28.8019 11.4233 28.8698C12.9379 28.9376 13.4207 28.9546 17.2756 28.9546C21.1317 28.9546 21.6144 28.9388 23.128 28.8698C24.6392 28.8019 25.6712 28.5656 26.5736 28.2195C27.5069 27.8611 28.2981 27.3827 29.0881 26.6047C29.877 25.8266 30.362 25.0452 30.7255 24.1247C31.0764 23.2347 31.3172 22.2169 31.3848 20.7265C31.4536 19.2326 31.4697 18.7565 31.4697 14.9546C31.4697 11.1527 31.4536 10.6754 31.3848 9.1827C31.316 7.69223 31.0764 6.67446 30.7255 5.78448C30.362 4.86396 29.877 4.08367 29.0881 3.30451C28.2993 2.52648 27.5069 2.047 26.5747 1.68965C25.6712 1.3436 24.6392 1.10612 23.1291 1.0394C21.6156 0.971553 21.1317 0.95459 17.2768 0.95459C13.4207 0.95459 12.9379 0.970422 11.4233 1.0394Z" fill="white"/>
</g>
<defs>
<clipPath id="clip0_12_64">
<rect width="33" height="28" fill="white" transform="translate(0.775711 0.95459)"/>
</clipPath>
</defs>
</svg>
