<svg width="34" height="31" viewBox="0 0 34 31" fill="none" xmlns="http://www.w3.org/2000/svg">
<g clip-path="url(#clip0_12_66)">
<path d="M17.2754 0.95459C14.2424 0.95459 11.2776 1.83432 8.75573 3.48255C6.2339 5.13077 4.26838 7.47345 3.10771 10.2143C1.94704 12.9552 1.64335 15.9712 2.23506 18.8809C2.82676 21.7907 4.28728 24.4634 6.43192 26.5612C8.57656 28.659 11.309 30.0876 14.2837 30.6664C17.2584 31.2451 20.3418 30.9481 23.1439 29.8128C25.946 28.6775 28.341 26.7549 30.026 24.2881C31.711 21.8214 32.6104 18.9213 32.6104 15.9546C32.6104 13.9848 32.2138 12.0342 31.4431 10.2143C30.6725 8.39445 29.5429 6.74087 28.1189 5.34799C26.6949 3.95511 25.0044 2.85022 23.1439 2.0964C21.2833 1.34258 19.2892 0.95459 17.2754 0.95459ZM17.2754 3.95459C20.4263 3.95336 23.4551 5.14699 25.725 7.28459C23.3818 8.62889 20.8989 9.72508 18.3182 10.5546C17.0339 8.38983 15.5614 6.33725 13.917 4.41959C15.0088 4.11209 16.1393 3.95557 17.2754 3.95459ZM10.9727 5.67959C12.5793 7.47735 14.0213 9.40979 15.2819 11.4546C12.2717 12.1857 9.18236 12.5584 6.08085 12.5646H5.52879C6.3986 9.68405 8.34113 7.2273 10.9727 5.67959ZM8.0744 23.9196C6.07894 21.7277 4.98605 18.8895 5.0074 15.9546C5.0074 15.8046 5.0074 15.6546 5.0074 15.5196H6.05018C9.68055 15.4878 13.2904 14.9834 16.7847 14.0196C17.2754 14.9346 17.7355 15.8796 18.1802 16.8546C15.7902 17.6787 13.5643 18.9018 11.6015 20.4696L11.1414 20.8296C10.0482 21.7899 9.02347 22.8224 8.0744 23.9196ZM17.2754 27.9546C14.8311 27.9599 12.4421 27.2437 10.4207 25.8996C11.1672 25.062 11.9662 24.2705 12.8129 23.5296L13.3036 23.1246C15.118 21.6319 17.1972 20.4778 19.4376 19.7196C20.3598 22.1586 21.0778 24.6668 21.5845 27.2196C20.2041 27.7126 18.745 27.9615 17.2754 27.9546ZM24.3755 25.7196C23.8738 23.4494 23.2181 21.2145 22.4126 19.0296H22.934C22.9945 19.015 23.0576 19.015 23.118 19.0296H23.2867H23.4401H24.1762C25.79 19.0341 27.3916 19.3028 28.9147 19.8246C28.0779 22.2101 26.4885 24.2743 24.3755 25.7196ZM24.1762 15.9546C23.8541 15.9546 23.5321 15.9546 23.2254 15.9546C23.0268 15.9301 22.8259 15.9301 22.6273 15.9546C22.2105 15.9796 21.7957 16.0297 21.3852 16.1046H21.2318C20.7871 15.0996 20.3271 14.1246 19.821 13.1046C22.5669 12.1822 25.2042 10.9753 27.6879 9.50459C28.92 11.4386 29.5636 13.6759 29.5434 15.9546C29.5434 16.2096 29.5434 16.4646 29.5434 16.7196C27.8055 16.1949 25.9949 15.9369 24.1762 15.9546Z" fill="white"/>
</g>
<defs>
<clipPath id="clip0_12_66">
<rect width="33" height="30" fill="white" transform="translate(0.775711 0.95459)"/>
</clipPath>
</defs>
</svg>
