<svg width="44" height="45" viewBox="0 0 44 45" fill="none" xmlns="http://www.w3.org/2000/svg">
<path d="M3.66621 5.29051L15.1337 39.858C15.226 40.1311 15.4017 40.3683 15.6361 40.5361C15.8705 40.7039 16.1517 40.7938 16.44 40.793C16.7394 40.78 17.0263 40.6695 17.2572 40.4784C17.488 40.2873 17.6501 40.026 17.7187 39.7343L22.0087 21.9418L39.8837 17.7068C40.1733 17.6388 40.433 17.4787 40.6239 17.2507C40.8148 17.0226 40.9265 16.7388 40.9425 16.4418C40.9581 16.1419 40.8752 15.8452 40.7064 15.5969C40.5375 15.3486 40.2921 15.1624 40.0075 15.0668L5.39872 3.54426C5.15613 3.46442 4.8961 3.45372 4.64777 3.51336C4.39943 3.573 4.17262 3.70062 3.99275 3.88192C3.81288 4.06322 3.68705 4.29103 3.62938 4.53983C3.5717 4.78862 3.58446 5.04856 3.66621 5.29051Z" fill="white"/>
</svg>
