<svg width="17" height="12" viewBox="0 0 17 12" fill="none" xmlns="http://www.w3.org/2000/svg">
<path d="M1.4751 5.25C1.06088 5.25 0.725098 5.58579 0.725098 6C0.725098 6.41421 1.06088 6.75 1.4751 6.75L1.4751 5.25ZM16.5561 6.53033C16.849 6.23744 16.849 5.76256 16.5561 5.46967L11.7831 0.6967C11.4902 0.403807 11.0153 0.403807 10.7225 0.6967C10.4296 0.989593 10.4296 1.46447 10.7225 1.75736L14.9651 6L10.7225 10.2426C10.4296 10.5355 10.4296 11.0104 10.7225 11.3033C11.0153 11.5962 11.4902 11.5962 11.7831 11.3033L16.5561 6.53033ZM1.4751 6.75L16.0258 6.75L16.0258 5.25L1.4751 5.25L1.4751 6.75Z" fill="white"/>
</svg>
