<svg width="8" height="8" viewBox="0 0 8 8" fill="none" xmlns="http://www.w3.org/2000/svg">
<path d="M0.264274 6.43804C0.0299589 6.67236 0.0299589 7.05225 0.264274 7.28657C0.498588 7.52088 0.878487 7.52088 1.1128 7.28657L0.264274 6.43804ZM7.02577 1.12507C7.02577 0.793701 6.75714 0.525072 6.42577 0.525072L1.02577 0.525072C0.6944 0.525072 0.425771 0.793701 0.42577 1.12507C0.425771 1.45644 0.6944 1.72507 1.02577 1.72507L5.82577 1.72507L5.82577 6.52507C5.82577 6.85644 6.0944 7.12507 6.42577 7.12507C6.75714 7.12507 7.02577 6.85644 7.02577 6.52507L7.02577 1.12507ZM1.1128 7.28657L6.85003 1.54934L6.00151 0.700807L0.264274 6.43804L1.1128 7.28657Z" fill="white"/>
</svg>
