<svg width="45" height="45" viewBox="0 0 45 45" fill="none" xmlns="http://www.w3.org/2000/svg">
<path d="M12.7127 20.223V18.1192V13.3067C10.5677 13.6092 8.86264 15.328 8.62892 17.5417L6.3739 38.1667C6.23643 39.5279 6.66268 40.8892 7.5839 41.9067C8.49146 42.9242 9.79772 43.5017 11.159 43.5017H34.4789C35.8401 43.5017 37.1464 42.9242 38.054 41.9067C38.9752 40.8892 39.4014 39.5279 39.264 38.1667L37.0089 17.5417C36.7752 15.328 35.0702 13.6092 32.9252 13.3067V18.1192V20.223C32.9252 21.7354 31.6877 22.973 30.1752 22.973C28.6627 22.973 27.4252 21.7354 27.4252 20.223V17.3767V13.2517H18.2127V17.3767V20.223C18.2127 21.7354 16.9752 22.973 15.4627 22.973C13.9502 22.973 12.7127 21.7354 12.7127 20.223Z" fill="white"/>
<path d="M14.0876 13.2517V17.3767V20.223C14.0876 20.9792 14.7063 21.598 15.4626 21.598C16.2189 21.598 16.8376 20.9792 16.8376 20.223V17.3767V13.2517V10.2954C16.8376 6.99547 19.5188 4.31421 22.8189 4.31421C26.1189 4.31421 28.8001 6.99547 28.8001 10.2954V13.2517V17.3767V20.223C28.8001 20.9792 29.4189 21.598 30.1751 21.598C30.9314 21.598 31.5501 20.9792 31.5501 20.223V17.3767V13.2517V10.2954C31.5501 5.48293 27.6314 1.56421 22.8189 1.56421C18.0064 1.56421 14.0876 5.48293 14.0876 10.2954V13.2517Z" fill="white"/>
</svg>
