<svg width="34" height="32" viewBox="0 0 34 32" fill="none" xmlns="http://www.w3.org/2000/svg">
<g clip-path="url(#clip0_12_68)">
<path d="M0.775711 4.55575C0.775711 3.51196 1.14734 2.65085 1.89058 1.97242C2.63381 1.29396 3.60005 0.954742 4.78922 0.954742C5.95719 0.954742 6.90215 1.28873 7.62417 1.95676C8.3674 2.64565 8.73903 3.54327 8.73903 4.64969C8.73903 5.65171 8.37804 6.4867 7.65602 7.15473C6.91279 7.84362 5.93594 8.18807 4.72552 8.18807H4.69366C3.5257 8.18807 2.58074 7.84362 1.85872 7.15473C1.1367 6.46585 0.775711 5.59951 0.775711 4.55575ZM1.1898 31.9547V11.0376H8.26123V31.9547H1.1898ZM12.1792 31.9547H19.2506V20.2749C19.2506 19.5443 19.3356 18.9806 19.5054 18.584C19.8027 17.8742 20.254 17.2741 20.8592 16.7835C21.4644 16.2929 22.2236 16.0476 23.1367 16.0476C25.5151 16.0476 26.7043 17.6237 26.7043 20.7759V31.9547H33.7757V19.9618C33.7757 16.8722 33.0325 14.529 31.546 12.932C30.0595 11.335 28.0952 10.5365 25.6531 10.5365C22.9137 10.5365 20.7796 11.6951 19.2506 14.0123V14.0749H19.2188L19.2506 14.0123V11.0376H12.1792C12.2216 11.7056 12.2429 13.7826 12.2429 17.2689C12.2429 20.755 12.2216 25.6503 12.1792 31.9547Z" fill="white"/>
</g>
<defs>
<clipPath id="clip0_12_68">
<rect width="33" height="31" fill="white" transform="translate(0.775711 0.95459)"/>
</clipPath>
</defs>
</svg>
