<svg width="1441" height="64" viewBox="0 0 1441 64" fill="none" xmlns="http://www.w3.org/2000/svg">
<path d="M1129.52 7.01811L1078.75 57.9624C1075 61.7281 1069.9 63.8448 1064.59 63.8448H1389.11C1383.8 63.8448 1378.7 61.7281 1374.95 57.9623L1324.18 7.01821C1320.43 3.25244 1315.33 1.13574 1310.01 1.13574H1143.69C1138.37 1.13574 1133.27 3.2524 1129.52 7.01811Z" fill="#111111"/>
<path d="M0.483093 63.3449H1064.63C1069.93 63.3449 1075.02 61.2377 1078.77 57.487L1129.54 6.71041C1133.29 2.95968 1138.38 0.852539 1143.69 0.852539H1310.05C1315.36 0.852539 1320.44 2.95968 1324.19 6.71041L1374.97 57.487C1378.72 61.2377 1383.81 63.3449 1389.11 63.3449H1440.48" stroke="url(#paint0_linear_151_7)"/>
<defs>
<linearGradient id="paint0_linear_151_7" x1="6.67519" y1="32.0987" x2="1455.63" y2="32.0987" gradientUnits="userSpaceOnUse">
<stop offset="0.15" stop-color="#6A6A6A" stop-opacity="0"/>
<stop offset="0.6" stop-color="#6A6A6A"/>
</linearGradient>
</defs>
</svg>
