<svg width="17" height="12" viewBox="0 0 17 12" fill="none" xmlns="http://www.w3.org/2000/svg">
<path d="M1.11572 5.03418C0.701509 5.03418 0.365723 5.36997 0.365723 5.78418C0.365723 6.19839 0.701509 6.53418 1.11572 6.53418L1.11572 5.03418ZM16.1967 6.31451C16.4896 6.02162 16.4896 5.54674 16.1967 5.25385L11.4237 0.48088C11.1308 0.187986 10.656 0.187986 10.3631 0.48088C10.0702 0.773773 10.0702 1.24865 10.3631 1.54154L14.6057 5.78418L10.3631 10.0268C10.0702 10.3197 10.0702 10.7946 10.3631 11.0875C10.656 11.3804 11.1308 11.3804 11.4237 11.0875L16.1967 6.31451ZM1.11572 6.53418L15.6664 6.53418L15.6664 5.03418L1.11572 5.03418L1.11572 6.53418Z" fill="#F25616"/>
</svg>
