<svg width="744" height="47" viewBox="0 0 744 47" fill="none" xmlns="http://www.w3.org/2000/svg">
<path d="M292.557 6.92334L258.708 40.9333C255.008 44.6505 249.98 46.7403 244.736 46.7403H499.037C493.733 46.7403 488.647 44.6267 484.905 40.8671L451.122 6.92335C447.369 3.15211 442.267 1.03194 436.946 1.03194L306.733 1.03194C301.412 1.03194 296.311 3.1521 292.557 6.92334Z" fill="#111111"/>
<path d="M0.51709 46.2414H244.644C249.948 46.2414 255.035 44.1342 258.786 40.3835L292.562 6.6069C296.313 2.85617 301.4 0.749023 306.704 0.749023L436.973 0.749023C442.278 0.749023 447.365 2.85616 451.116 6.60689L484.892 40.3835C488.643 44.1342 493.73 46.2414 499.034 46.2414H743.16" stroke="url(#paint0_linear_247_6)"/>
<defs>
<linearGradient id="paint0_linear_247_6" x1="-65.898" y1="14.9952" x2="718.153" y2="14.9952" gradientUnits="userSpaceOnUse">
<stop offset="0.05" stop-color="#6A6A6A" stop-opacity="0"/>
<stop offset="0.6" stop-color="#6A6A6A"/>
</linearGradient>
</defs>
</svg>
