<svg width="153" height="33" viewBox="0 0 153 33" fill="none" xmlns="http://www.w3.org/2000/svg">
<g clip-path="url(#clip0_72_193)">
<mask id="mask0_72_193" style="mask-type:luminance" maskUnits="userSpaceOnUse" x="0" y="0" width="152" height="32">
<path d="M151.908 0.253174H0.859619V31.8574H151.908V0.253174Z" fill="white"/>
</mask>
<g mask="url(#mask0_72_193)">
<path d="M23.5192 14.1233C23.0971 14.5753 22.7739 15.1207 22.5726 15.7206C22.3713 16.3207 22.2968 16.9606 22.3544 17.5947L22.3343 17.5734C22.3935 18.32 22.2989 19.0712 22.0571 19.7748C21.8154 20.4783 21.4323 21.1172 20.9347 21.647C20.4369 22.1767 19.8366 22.5845 19.1755 22.8417C18.5145 23.099 17.8086 23.1997 17.1073 23.1367L17.1273 23.158C16.2884 23.0749 15.4458 23.2692 14.7143 23.7145C13.9829 24.1597 13.3983 24.8342 13.0403 25.6461C12.6822 26.4579 12.5682 27.3674 12.7136 28.2509C12.8591 29.1342 13.257 29.9483 13.8531 30.5821C14.4491 31.216 15.2144 31.6387 16.0444 31.7927C16.8746 31.9467 17.729 31.8244 18.4915 31.4427C19.2539 31.0609 19.887 30.4381 20.3048 29.6593C20.7224 28.8803 20.9043 27.9833 20.8254 27.0905L20.8466 27.1118C20.7873 26.3654 20.8819 25.6141 21.1237 24.9105C21.3654 24.2069 21.7486 23.568 22.2462 23.0382C22.744 22.5085 23.3443 22.1007 24.0053 21.8435C24.6664 21.5862 25.3722 21.4855 26.0736 21.5485L26.0525 21.5272C26.7377 21.5928 27.4276 21.4731 28.058 21.1794C28.6882 20.8857 29.2388 20.4274 29.6584 19.8471C30.078 19.2667 30.3532 18.5828 30.4584 17.8592C30.5636 17.1353 30.4955 16.3951 30.2603 15.7067C30.0251 15.0185 29.6304 14.4046 29.1129 13.9218C28.5955 13.4392 27.9719 13.1033 27.3 12.9454C26.6281 12.7875 25.9295 12.8127 25.2692 13.0185C24.6089 13.2245 24.0081 13.6045 23.5225 14.1233H23.5192Z" fill="white"/>
<path d="M15.3046 20.3633L15.2834 20.342C15.8795 20.4059 16.4815 20.3281 17.0459 20.114C17.6103 19.9 18.123 19.5552 18.5468 19.1044C18.9705 18.6537 19.295 18.1083 19.4965 17.5078C19.698 16.9073 19.7716 16.2666 19.712 15.6321L19.7332 15.6534C19.674 14.9069 19.7686 14.1557 20.0103 13.4521C20.252 12.7485 20.6351 12.1096 21.1328 11.5798C21.6306 11.0502 22.2309 10.6424 22.8919 10.3851C23.553 10.1278 24.2588 10.0272 24.9602 10.0902L24.9391 10.0689C25.7781 10.1528 26.6209 9.95899 27.3528 9.51428C28.0847 9.06948 28.6698 8.3953 29.0284 7.5836C29.3869 6.77191 29.5015 5.86225 29.3565 4.97868C29.2115 4.09511 28.814 3.28068 28.218 2.64644C27.6221 2.01221 26.857 1.58905 26.0268 1.43472C25.1966 1.28037 24.3419 1.40234 23.5793 1.78399C22.8166 2.16564 22.1832 2.78839 21.7653 3.56731C21.3474 4.3462 21.1655 5.24336 21.2443 6.13637L21.2243 6.11385C21.2836 6.86039 21.1892 7.61172 20.9475 8.3154C20.7059 9.01908 20.3227 9.6581 19.825 10.188C19.3273 10.7176 18.7269 11.1254 18.0658 11.3826C17.4046 11.6398 16.6987 11.7403 15.9972 11.6771L16.0173 11.6996C15.4212 11.6358 14.8191 11.7137 14.2547 11.9277C13.6904 12.1416 13.1777 12.4865 12.7539 12.9372C12.3301 13.388 12.0057 13.9334 11.8041 14.5339C11.6027 15.1345 11.5291 15.775 11.5886 16.4096L11.5686 16.3882C11.6276 17.1346 11.5328 17.8858 11.2912 18.5894C11.0493 19.2928 10.6662 19.9317 10.1685 20.4614C9.67085 20.991 9.07061 21.3987 8.40966 21.6561C7.74869 21.9135 7.04293 22.0143 6.3416 21.9515L6.36165 21.9729C5.52261 21.8889 4.67969 22.0825 3.94785 22.5273C3.21602 22.9721 2.6309 23.6463 2.27233 24.458C1.91374 25.2697 1.79914 26.1794 1.94415 27.063C2.08917 27.9465 2.48675 28.7609 3.08265 29.3952C3.67856 30.0295 4.44377 30.4526 5.27393 30.6069C6.1041 30.7612 6.95878 30.6393 7.72142 30.2577C8.48405 29.876 9.11755 29.2533 9.53538 28.4744C9.9533 27.6953 10.1353 26.7983 10.0564 25.9053L10.0776 25.9266C10.0184 25.1801 10.113 24.4289 10.3548 23.7252C10.5964 23.0217 10.9796 22.3828 11.4772 21.853C11.975 21.3233 12.5753 20.9155 13.2362 20.6584C13.8974 20.401 14.6032 20.3003 15.3046 20.3633Z" fill="white"/>
<path d="M7.84149 17.9847C8.26355 17.5329 8.58668 16.9875 8.78783 16.3875C8.98894 15.7874 9.06319 15.1474 9.00515 14.5133L9.02628 14.5347C8.96706 13.788 9.06169 13.0364 9.30355 12.3327C9.54541 11.6289 9.92876 10.9899 10.4267 10.4601C10.9247 9.9303 11.5253 9.52265 12.1865 9.2655C12.8479 9.00834 13.554 8.90798 14.2556 8.97137L14.2344 8.95003C15.0731 9.03368 15.9157 8.8399 16.6472 8.39517C17.3788 7.95046 17.9635 7.27641 18.3219 6.46497C18.6803 5.65352 18.7947 4.74418 18.6497 3.86095C18.5047 2.97771 18.1072 2.16359 17.5116 1.52958C16.9159 0.89558 16.1509 0.472564 15.3211 0.318229C14.4913 0.163882 13.6369 0.285744 12.8745 0.66716C12.112 1.04857 11.4788 1.671 11.061 2.44954C10.6431 3.2281 10.461 4.12488 10.5396 5.01759L10.5196 4.99626C10.5788 5.74274 10.4841 6.494 10.2424 7.19757C10.0007 7.90114 9.61766 8.54009 9.1199 9.06986C8.62221 9.59954 8.02187 10.0073 7.36082 10.2645C6.69977 10.5219 5.99394 10.6226 5.29256 10.5595L5.31261 10.5809C4.62729 10.5155 3.93754 10.6353 3.30729 10.9291C2.67704 11.2228 2.12667 11.6813 1.70718 12.2618C1.2877 12.8422 1.01268 13.526 0.907578 14.2497C0.802493 14.9735 0.870743 15.7138 1.106 16.4019C1.34126 17.0901 1.73594 17.7039 2.25344 18.1866C2.77094 18.6692 3.39453 19.0051 4.06643 19.1629C4.73831 19.3206 5.43677 19.2954 6.09707 19.0895C6.75737 18.8835 7.35813 18.5035 7.8437 17.9847H7.84149Z" fill="white"/>
<path d="M42.3359 6.16364H45.6432V23.2931H42.3359V6.16364Z" fill="white"/>
<path d="M47.5163 17.4276C47.5117 16.1967 47.8504 14.9919 48.4896 13.9659C49.1288 12.94 50.0396 12.1391 51.1069 11.6647C52.1742 11.1901 53.3496 11.0634 54.4846 11.3006C55.6195 11.5377 56.6627 12.128 57.4822 12.9967C58.3017 13.8653 58.8605 14.9734 59.0878 16.1803C59.3152 17.3873 59.2009 18.639 58.7593 19.7768C58.3178 20.9144 57.569 21.8872 56.6076 22.5716C55.6462 23.256 54.5157 23.6214 53.3591 23.6214C52.5914 23.6308 51.8296 23.477 51.1183 23.1694C50.4069 22.8617 49.7604 22.4063 49.2164 21.8296C48.6723 21.2529 48.2419 20.5666 47.95 19.8108C47.658 19.055 47.5106 18.2448 47.5163 17.4276ZM55.8946 17.4276C55.8808 16.897 55.7203 16.3825 55.4334 15.9484C55.1463 15.5144 54.7455 15.18 54.2809 14.9871C53.8162 14.7942 53.3085 14.7512 52.8211 14.8639C52.3337 14.9764 51.8883 15.2393 51.5405 15.6199C51.1928 16.0003 50.9582 16.4815 50.866 17.0032C50.7738 17.5248 50.828 18.0639 51.0221 18.5528C51.2162 19.0418 51.5414 19.4591 51.957 19.7524C52.3727 20.0457 52.8604 20.2022 53.3591 20.2022C53.7006 20.2119 54.0403 20.1461 54.3569 20.0091C54.6734 19.872 54.9598 19.6668 55.198 19.4062C55.4361 19.1455 55.6211 18.8351 55.741 18.4945C55.8609 18.154 55.9132 17.7908 55.8946 17.4276Z" fill="white"/>
<path d="M72.3831 11.561V22.7018C72.3831 26.6436 69.4945 28.31 66.5625 28.31C65.5303 28.3922 64.4965 28.1703 63.5748 27.6686C62.6533 27.1668 61.8793 26.4046 61.3378 25.4656L64.1594 23.7293C64.3871 24.2187 64.7497 24.6226 65.1989 24.8867C65.648 25.1508 66.1623 25.2626 66.6728 25.2072C66.999 25.2554 67.3313 25.2248 67.645 25.1178C67.9586 25.0107 68.2457 24.8299 68.4849 24.589C68.724 24.348 68.9092 24.0529 69.0268 23.7252C69.1443 23.3978 69.1911 23.0464 69.1638 22.697V21.6244C68.7765 22.1287 68.2837 22.5294 67.7245 22.7943C67.1654 23.0592 66.5559 23.1809 65.9445 23.1498C64.49 23.1009 63.1104 22.4516 62.0978 21.3393C61.085 20.2269 60.5188 18.7388 60.5188 17.19C60.5188 15.6412 61.085 14.1531 62.0978 13.0408C63.1104 11.9284 64.49 11.2792 65.9445 11.2303C66.5559 11.1992 67.1654 11.3209 67.7245 11.5858C68.2837 11.8506 68.7765 12.2514 69.1638 12.7556V11.5586L72.3831 11.561ZM69.1649 17.1918C69.1871 16.6246 69.0493 16.0632 68.7692 15.58C68.4892 15.0966 68.0796 14.7137 67.5933 14.4803C67.1071 14.2468 66.5663 14.1738 66.0406 14.2702C65.5149 14.3666 65.0284 14.6283 64.6435 15.0218C64.2588 15.415 63.9934 15.9218 63.8815 16.4769C63.7698 17.0321 63.8165 17.6102 64.0161 18.1368C64.2155 18.6634 64.5585 19.1144 65.0008 19.4318C65.4431 19.7492 65.9646 19.9185 66.4979 19.9178C66.8455 19.9435 67.1941 19.8916 67.5217 19.7653C67.8491 19.639 68.1481 19.441 68.3993 19.1842C68.6505 18.9274 68.8486 18.6175 68.9804 18.2742C69.1122 17.9311 69.1751 17.5624 69.1649 17.1918Z" fill="white"/>
<path d="M74.256 17.4276C74.2514 16.1967 74.5901 14.9919 75.2294 13.9659C75.8686 12.94 76.7795 12.1391 77.8466 11.6647C78.9139 11.1901 80.0894 11.0634 81.2243 11.3006C82.3592 11.5377 83.4025 12.128 84.222 12.9967C85.0413 13.8653 85.6 14.9734 85.828 16.1803C86.0551 17.3873 85.9407 18.639 85.4989 19.7768C85.058 20.9144 84.3088 21.8872 83.3474 22.5716C82.3859 23.256 81.2554 23.6214 80.0988 23.6214C79.3311 23.6308 78.5692 23.477 77.858 23.1694C77.1467 22.8617 76.5002 22.4063 75.9562 21.8296C75.4121 21.2529 74.9816 20.5666 74.6897 19.8108C74.3977 19.055 74.2503 18.2448 74.256 17.4276ZM82.6344 17.4276C82.6206 16.897 82.4601 16.3825 82.1731 15.9484C81.8861 15.5144 81.4852 15.18 81.0206 14.9871C80.5559 14.7942 80.0482 14.7512 79.5609 14.8639C79.0735 14.9764 78.628 15.2393 78.2803 15.6199C77.9327 16.0003 77.6979 16.4815 77.6057 17.0032C77.5135 17.5248 77.5679 18.0639 77.762 18.5528C77.956 19.0418 78.2812 19.4591 78.6968 19.7524C79.1124 20.0457 79.6001 20.2022 80.0988 20.2022C80.4403 20.2119 80.7801 20.1461 81.0966 20.0091C81.4131 19.872 81.6996 19.6668 81.9378 19.4062C82.176 19.1455 82.3609 18.8351 82.4807 18.4945C82.6006 18.154 82.653 17.7908 82.6344 17.4276Z" fill="white"/>
<path d="M87.4841 8.41669C87.4841 7.99898 87.6002 7.59064 87.8182 7.24333C88.0362 6.89602 88.346 6.6253 88.7093 6.46546C89.0718 6.30561 89.4702 6.26378 89.8552 6.34527C90.2402 6.42676 90.5943 6.62792 90.8716 6.92329C91.1488 7.21865 91.3376 7.59497 91.4144 8.00466C91.4913 8.41434 91.452 8.83899 91.3017 9.22494C91.1513 9.61081 90.8974 9.94067 90.5709 10.1728C90.2443 10.4049 89.861 10.5287 89.4685 10.5287C88.944 10.5232 88.4421 10.2989 88.0713 9.90396C87.6996 9.50912 87.4891 8.97507 87.4841 8.41669ZM87.8182 11.561H91.1263V23.2944H87.8132L87.8182 11.561Z" fill="white"/>
<path d="M105.407 17.4276C105.445 18.2031 105.338 18.9789 105.094 19.7105C104.85 20.4422 104.471 21.1151 103.982 21.6907C103.492 22.2663 102.9 22.7332 102.241 23.0646C101.581 23.3959 100.866 23.5851 100.137 23.6214C99.5246 23.6569 98.9116 23.547 98.3437 23.2994C97.7758 23.0517 97.2663 22.6727 96.8529 22.1897V27.9864H93.5457V11.5609H96.8529V12.6632C97.2671 12.1806 97.7758 11.8018 98.3437 11.5544C98.9116 11.307 99.5246 11.1971 100.137 11.2327C100.866 11.2688 101.581 11.458 102.241 11.7894C102.901 12.1208 103.493 12.5877 103.983 13.1634C104.472 13.7392 104.85 14.4124 105.094 15.1442C105.339 15.876 105.445 16.652 105.407 17.4276ZM102.099 17.4276C102.086 16.8785 101.922 16.3456 101.625 15.8957C101.329 15.4457 100.915 15.0987 100.435 14.8982C99.9547 14.6976 99.4286 14.6521 98.9241 14.7679C98.4197 14.8834 97.9587 15.1548 97.5979 15.548C97.2379 15.9414 96.9949 16.439 96.8988 16.9788C96.8028 17.5185 96.8587 18.0763 97.0592 18.5824C97.2596 19.0887 97.5962 19.5206 98.0263 19.8243C98.4564 20.128 98.9609 20.29 99.477 20.2898C99.8311 20.3067 100.185 20.2435 100.514 20.1046C100.844 19.9658 101.143 19.7543 101.39 19.484C101.638 19.2137 101.829 18.8909 101.952 18.5365C102.074 18.1821 102.124 17.8041 102.099 17.4276Z" fill="white"/>
<path d="M115.612 19.7731C115.612 22.4718 113.408 23.6214 111.027 23.6214C110.065 23.7141 109.1 23.4977 108.255 22.9998C107.409 22.502 106.725 21.7458 106.288 20.8291L109.152 19.0928C109.269 19.5165 109.517 19.8852 109.858 20.1371C110.198 20.389 110.611 20.5091 111.023 20.4771C111.817 20.4771 112.214 20.2187 112.214 19.7505C112.214 18.4587 106.79 19.1402 106.79 15.0809C106.79 12.5222 108.818 11.2327 111.112 11.2327C111.974 11.2036 112.826 11.4212 113.582 11.8627C114.338 12.3043 114.97 12.9536 115.41 13.7429L112.588 15.3618C112.465 15.0545 112.258 14.7928 111.995 14.6091C111.733 14.4256 111.426 14.3284 111.112 14.3296C110.538 14.3296 110.185 14.5666 110.185 14.9862C110.19 16.3242 115.612 15.4318 115.612 19.7731Z" fill="white"/>
<path d="M127.693 11.561V23.2943H124.386V22.1909C124.004 22.6778 123.52 23.0614 122.972 23.3103C122.424 23.5592 121.829 23.6662 121.235 23.6227C119.007 23.6227 117.114 21.9338 117.114 18.7634V11.561H120.421V18.2478C120.394 18.5273 120.424 18.8099 120.51 19.0756C120.594 19.3416 120.734 19.5846 120.916 19.7876C121.099 19.9907 121.32 20.1489 121.566 20.2514C121.811 20.3539 122.075 20.3982 122.339 20.3812C123.551 20.3812 124.389 19.6309 124.389 17.9645V11.5645L127.693 11.561Z" fill="white"/>
<path d="M146.657 16.0896V23.2931H143.35V16.3942C143.35 15.2209 142.821 14.4706 141.763 14.4706C140.661 14.4706 140.043 15.292 140.043 16.6762V23.2931H136.736V16.3942C136.736 15.2209 136.208 14.4706 135.149 14.4706C134.046 14.4706 133.429 15.292 133.429 16.6762V23.2931H130.122V11.5598H133.429V12.6383C133.772 12.1599 134.222 11.7803 134.738 11.5346C135.254 11.2889 135.82 11.1847 136.383 11.2315C136.949 11.202 137.512 11.3291 138.019 11.6004C138.524 11.8716 138.955 12.2779 139.271 12.7793C139.637 12.2546 140.123 11.8375 140.682 11.5668C141.24 11.2961 141.855 11.1808 142.468 11.2315C144.999 11.2327 146.657 13.1562 146.657 16.0896Z" fill="white"/>
<path d="M149.454 11.4887C150.81 11.4887 151.909 10.3192 151.909 8.87655C151.909 7.4339 150.81 6.2644 149.454 6.2644C148.099 6.2644 147 7.4339 147 8.87655C147 10.3192 148.099 11.4887 149.454 11.4887Z" fill="white"/>
</g>
</g>
<defs>
<clipPath id="clip0_72_193">
<rect width="152" height="32" fill="white" transform="translate(0.5 0.0553589)"/>
</clipPath>
</defs>
</svg>
