<svg width="129" height="33" viewBox="0 0 129 33" fill="none" xmlns="http://www.w3.org/2000/svg">
<g clip-path="url(#clip0_72_158)">
<mask id="mask0_72_158" style="mask-type:luminance" maskUnits="userSpaceOnUse" x="0" y="0" width="129" height="32">
<path d="M128.289 0.445618H0.729248V31.6651H128.289V0.445618Z" fill="white"/>
</mask>
<g mask="url(#mask0_72_158)">
<path d="M37.9087 22.6895H47.0653V19.8798H41.1631V9.29633H37.9087V22.6895Z" fill="white"/>
<path d="M52.4903 20.8164C51.1849 20.8164 50.5045 19.655 50.5045 17.9129C50.5045 16.1709 51.1849 14.9908 52.4903 14.9908C53.7958 14.9908 54.4945 16.1709 54.4945 17.9129C54.4945 19.655 53.7958 20.8164 52.4903 20.8164ZM52.5087 22.9892C55.5426 22.9892 57.5284 20.7976 57.5284 17.9129C57.5284 15.0283 55.5426 12.8367 52.5087 12.8367C49.4933 12.8367 47.4707 15.0283 47.4707 17.9129C47.4707 20.7976 49.4933 22.9892 52.5087 22.9892Z" fill="white"/>
<path d="M62.7797 26.005C64.1771 26.005 65.409 25.6866 66.2365 24.9373C66.9903 24.2443 67.4868 23.1952 67.4868 21.7529V13.0988H64.6184V14.1291H64.5816C64.03 13.3236 63.1842 12.8179 61.9339 12.8179C59.5988 12.8179 57.9807 14.8035 57.9807 17.6132C57.9807 20.5541 59.9481 22.165 62.0627 22.165C63.2026 22.165 63.9197 21.6968 64.4713 21.0599H64.5448V22.0152C64.5448 23.1765 64.0116 23.8508 62.7429 23.8508C61.75 23.8508 61.2536 23.42 61.0881 22.9143H58.183C58.4772 24.9186 60.1872 26.005 62.7797 26.005ZM62.7613 19.8985C61.6397 19.8985 60.9042 18.9619 60.9042 17.5196C60.9042 16.0585 61.6397 15.1219 62.7613 15.1219C64.0116 15.1219 64.6735 16.2084 64.6735 17.5008C64.6735 18.8495 64.0668 19.8985 62.7613 19.8985Z" fill="white"/>
<path d="M73.3846 20.8164C72.0792 20.8164 71.3988 19.655 71.3988 17.9129C71.3988 16.1709 72.0792 14.9908 73.3846 14.9908C74.6902 14.9908 75.3888 16.1709 75.3888 17.9129C75.3888 19.655 74.6902 20.8164 73.3846 20.8164ZM73.403 22.9892C76.4368 22.9892 78.4229 20.7976 78.4229 17.9129C78.4229 15.0283 76.4368 12.8367 73.403 12.8367C70.3876 12.8367 68.365 15.0283 68.365 17.9129C68.365 20.7976 70.3876 22.9892 73.403 22.9892Z" fill="white"/>
<path d="M79.2979 22.6895H82.2953V13.0989H79.2979V22.6895ZM79.2979 11.7689H82.2953V9.29633H79.2979V11.7689Z" fill="white"/>
<path d="M83.595 25.8552H86.5924V21.6968H86.6293C87.2174 22.5022 88.0812 22.9892 89.2953 22.9892C91.7587 22.9892 93.3952 21.0036 93.3952 17.8942C93.3952 15.0095 91.8694 12.8179 89.3683 12.8179C88.0813 12.8179 87.1625 13.3986 86.5186 14.2603H86.4636V13.0988H83.595V25.8552ZM88.5226 20.629C87.2355 20.629 86.5005 19.5613 86.5005 18.0066C86.5005 16.4519 87.1625 15.2717 88.4676 15.2717C89.7547 15.2717 90.3617 16.3582 90.3617 18.0066C90.3617 19.6363 89.6628 20.629 88.5226 20.629Z" fill="white"/>
<path d="M98.2757 22.9892C100.739 22.9892 102.56 21.9028 102.56 19.8048C102.56 17.351 100.611 16.9201 98.9557 16.6392C97.7605 16.4144 96.6941 16.3208 96.6941 15.6464C96.6941 15.047 97.2642 14.766 98 14.766C98.8269 14.766 99.397 15.0283 99.5078 15.8899H102.266C102.119 13.998 100.684 12.8179 98.0181 12.8179C95.7934 12.8179 93.9543 13.8668 93.9543 15.8899C93.9543 18.1377 95.7015 18.5872 97.3381 18.8683C98.5882 19.093 99.7284 19.1867 99.7284 20.0484C99.7284 20.6665 99.1583 21.0036 98.2568 21.0036C97.2642 21.0036 96.6392 20.5354 96.5292 19.58H93.6975C93.7894 21.6968 95.5178 22.9892 98.2757 22.9892Z" fill="white"/>
<path d="M106.63 22.9705C107.935 22.9705 108.763 22.446 109.443 21.5094H109.499V22.6895H112.367V13.0989H109.37V18.4562C109.37 19.5988 108.745 20.3855 107.715 20.3855C106.759 20.3855 106.299 19.8048 106.299 18.7558V13.0989H103.32V19.3927C103.32 21.5282 104.461 22.9705 106.63 22.9705Z" fill="white"/>
<path d="M113.671 22.6895H116.668V17.3135C116.668 16.1708 117.22 15.3654 118.157 15.3654C119.058 15.3654 119.481 15.9648 119.481 16.9951V22.6895H122.478V17.3135C122.478 16.1708 123.011 15.3654 123.967 15.3654C124.868 15.3654 125.291 15.9648 125.291 16.9951V22.6895H128.288V16.4519C128.288 14.2977 127.222 12.8179 125.089 12.8179C123.876 12.8179 122.864 13.3424 122.128 14.5037H122.092C121.614 13.4735 120.676 12.8179 119.444 12.8179C118.083 12.8179 117.183 13.4735 116.594 14.4663H116.539V13.0988H113.671V22.6895Z" fill="white"/>
<path fill-rule="evenodd" clip-rule="evenodd" d="M7.28169 3.25371C6.18563 4.03448 5.19449 4.9576 4.33411 5.99676C7.85007 5.66422 12.317 6.20722 17.5031 8.8489C23.0411 11.6697 27.5005 11.7651 30.604 11.1552C30.3224 10.2866 29.9678 9.45178 29.5479 8.65818C25.9952 9.03994 21.4406 8.53466 16.1326 5.83097C12.7619 4.11405 9.79078 3.40679 7.28169 3.25371ZM27.4726 5.64886C24.667 2.45537 20.5897 0.445618 16.0517 0.445618C14.719 0.445618 13.426 0.61897 12.1933 0.944727C13.8628 1.40881 15.6364 2.08775 17.5031 3.03861C21.3892 5.01813 24.7444 5.6555 27.4726 5.64886ZM31.2676 14.2041C27.5181 14.9583 22.3407 14.8035 16.1326 11.6412C10.3288 8.6849 5.70938 8.7221 2.59392 9.42746C2.43311 9.46378 2.27608 9.5021 2.12285 9.54186C1.71496 10.4456 1.38937 11.3959 1.15575 12.3827C1.40526 12.3149 1.6631 12.2503 1.92912 12.1901C5.70872 11.3344 11.0489 11.3715 17.5031 14.6591C23.3069 17.6155 27.9263 17.5783 31.0418 16.8729C31.1485 16.8488 31.2537 16.8238 31.3571 16.7981C31.3684 16.5519 31.3742 16.3043 31.3742 16.0554C31.3742 15.429 31.338 14.8112 31.2676 14.2041ZM30.8568 20.0923C27.1438 20.7535 22.1171 20.4998 16.1326 17.4515C10.3288 14.4951 5.70938 14.5324 2.59392 15.2377C1.90237 15.3942 1.28027 15.5849 0.731493 15.7862C0.729996 15.8757 0.729248 15.9655 0.729248 16.0554C0.729248 24.6764 7.58933 31.6651 16.0517 31.6651C23.1438 31.6651 29.1105 26.7566 30.8568 20.0923Z" fill="white"/>
</g>
</g>
<defs>
<clipPath id="clip0_72_158">
<rect width="128" height="32" fill="white" transform="translate(0.5 0.0553589)"/>
</clipPath>
</defs>
</svg>
