<svg width="131" height="33" viewBox="0 0 131 33" fill="none" xmlns="http://www.w3.org/2000/svg">
<g clip-path="url(#clip0_72_173)">
<mask id="mask0_72_173" style="mask-type:luminance" maskUnits="userSpaceOnUse" x="1" y="0" width="130" height="32">
<path d="M130.191 0.445618H1.09497V31.6651H130.191V0.445618Z" fill="white"/>
</mask>
<g mask="url(#mask0_72_173)">
<path d="M38.9583 22.3222H48.2013V19.5124H42.2434V8.92896H38.9583V22.3222Z" fill="white"/>
<path d="M53.6776 20.449C52.3597 20.449 51.673 19.2876 51.673 17.5456C51.673 15.8035 52.3597 14.6235 53.6776 14.6235C54.9953 14.6235 55.7007 15.8035 55.7007 17.5456C55.7007 19.2876 54.9953 20.449 53.6776 20.449ZM53.6961 22.6219C56.7586 22.6219 58.7631 20.4303 58.7631 17.5456C58.7631 14.6609 56.7586 12.4693 53.6961 12.4693C50.6522 12.4693 48.6106 14.6609 48.6106 17.5456C48.6106 20.4303 50.6522 22.6219 53.6961 22.6219Z" fill="white"/>
<path d="M64.064 25.6377C65.4745 25.6377 66.7181 25.3193 67.5533 24.57C68.3143 23.8769 68.8154 22.8279 68.8154 21.3856V12.7315H65.92V13.7618H65.8829C65.3261 12.9563 64.4723 12.4506 63.2102 12.4506C60.853 12.4506 59.2197 14.4362 59.2197 17.2459C59.2197 20.1868 61.2056 21.7977 63.3401 21.7977C64.4908 21.7977 65.2147 21.3294 65.7715 20.6926H65.8458V21.6478C65.8458 22.8092 65.3075 23.4835 64.0269 23.4835C63.0246 23.4835 62.5235 23.0527 62.3564 22.547H59.4238C59.7209 24.5513 61.4469 25.6377 64.064 25.6377ZM64.0454 19.5312C62.9132 19.5312 62.1708 18.5946 62.1708 17.1522C62.1708 15.6912 62.9132 14.7546 64.0454 14.7546C65.3075 14.7546 65.9757 15.841 65.9757 17.1335C65.9757 18.4822 65.3632 19.5312 64.0454 19.5312Z" fill="white"/>
<path d="M74.7689 20.449C73.4511 20.449 72.7644 19.2876 72.7644 17.5456C72.7644 15.8035 73.4511 14.6235 74.7689 14.6235C76.0867 14.6235 76.792 15.8035 76.792 17.5456C76.792 19.2876 76.0867 20.449 74.7689 20.449ZM74.7875 22.6219C77.85 22.6219 79.8537 20.4303 79.8537 17.5456C79.8537 14.6609 77.85 12.4693 74.7875 12.4693C71.7436 12.4693 69.7019 14.6609 69.7019 17.5456C69.7019 20.4303 71.7436 22.6219 74.7875 22.6219Z" fill="white"/>
<path d="M80.7385 22.3222H83.7634V12.7315H80.7385V22.3222ZM80.7385 11.4016H83.7634V8.92896H80.7385V11.4016Z" fill="white"/>
<path d="M85.0759 25.4878H88.1008V21.3294H88.1381C88.7318 22.1349 89.6045 22.6219 90.8292 22.6219C93.3167 22.6219 94.9686 20.6363 94.9686 17.5269C94.9686 14.6422 93.4276 12.4506 90.9037 12.4506C89.6045 12.4506 88.6763 13.0313 88.0271 13.8929H87.9708V12.7315H85.0759V25.4878ZM90.05 20.2617C88.7508 20.2617 88.0081 19.194 88.0081 17.6393C88.0081 16.0846 88.6763 14.9044 89.9945 14.9044C91.2937 14.9044 91.9057 15.9909 91.9057 17.6393C91.9057 19.2689 91.201 20.2617 90.05 20.2617Z" fill="white"/>
<path d="M99.8936 22.6219C102.381 22.6219 104.218 21.5354 104.218 19.4375C104.218 16.9837 102.251 16.5528 100.581 16.2718C99.3744 16.047 98.2979 15.9534 98.2979 15.279C98.2979 14.6797 98.8734 14.3986 99.6153 14.3986C100.451 14.3986 101.026 14.6609 101.137 15.5226H103.921C103.773 13.6306 102.326 12.4506 99.6343 12.4506C97.3879 12.4506 95.5322 13.4995 95.5322 15.5226C95.5322 17.7704 97.2951 18.2199 98.9471 18.5009C100.209 18.7257 101.36 18.8194 101.36 19.681C101.36 20.2991 100.785 20.6363 99.8753 20.6363C98.8734 20.6363 98.2416 20.168 98.1306 19.2127H95.2722C95.365 21.3294 97.1097 22.6219 99.8936 22.6219Z" fill="white"/>
<path d="M108.328 22.6032C109.646 22.6032 110.481 22.0787 111.168 21.1421H111.223V22.3222H114.119V12.7316H111.093V18.0888C111.093 19.2315 110.462 20.0182 109.423 20.0182C108.458 20.0182 107.994 19.4376 107.994 18.3885V12.7316H104.987V19.0254C104.987 21.1608 106.137 22.6032 108.328 22.6032Z" fill="white"/>
<path d="M115.435 22.3222H118.46V16.9462C118.46 15.8035 119.017 14.9981 119.963 14.9981C120.873 14.9981 121.3 15.5975 121.3 16.6278V22.3222H124.326V16.9462C124.326 15.8035 124.864 14.9981 125.828 14.9981C126.738 14.9981 127.165 15.5975 127.165 16.6278V22.3222H130.191V16.0846C130.191 13.9304 129.114 12.4506 126.961 12.4506C125.736 12.4506 124.716 12.975 123.973 14.1364H123.936C123.453 13.1062 122.506 12.4506 121.263 12.4506C119.89 12.4506 118.98 13.1062 118.386 14.099H118.33V12.7315H115.435V22.3222Z" fill="white"/>
<path d="M20.5002 1.26814L17.4587 0.445618L14.8955 10.0999L12.5814 1.38395L9.53971 2.20648L12.04 11.6235L5.81246 5.33848L3.58584 7.58565L10.4167 14.4795L1.90997 12.1791L1.09497 15.2488L10.3895 17.7623C10.2832 17.2991 10.2268 16.8164 10.2268 16.3205C10.2268 12.8102 13.0465 9.9645 16.5247 9.9645C20.0029 9.9645 22.8225 12.8102 22.8225 16.3205C22.8225 16.8132 22.7669 17.2929 22.6619 17.7534L31.1089 20.0376L31.9239 16.9679L22.5923 14.4445L31.0996 12.1439L30.2845 9.07426L20.9533 11.5976L27.1808 5.31268L24.9542 3.0655L18.2182 9.8637L20.5002 1.26814Z" fill="white"/>
<path d="M22.6537 17.7891C22.3929 18.9018 21.8423 19.9014 21.0869 20.7022L27.2064 26.8782L29.4331 24.6311L22.6537 17.7891Z" fill="white"/>
<path d="M21.0249 20.7668C20.2603 21.5549 19.2941 22.143 18.2107 22.4461L20.4375 30.8332L23.4791 30.0107L21.0249 20.7668Z" fill="white"/>
<path d="M18.0971 22.4768C17.5944 22.6072 17.0675 22.6765 16.5246 22.6765C15.9429 22.6765 15.3796 22.5968 14.8448 22.4479L12.616 30.8427L15.6576 31.6652L18.0971 22.4768Z" fill="white"/>
<path d="M14.7373 22.4168C13.6704 22.0987 12.7214 21.5031 11.9725 20.7128L5.83789 26.904L8.06451 29.1512L14.7373 22.4168Z" fill="white"/>
<path d="M11.9213 20.6581C11.1852 19.8628 10.649 18.8766 10.3938 17.7811L1.91919 20.0728L2.73419 23.1425L11.9213 20.6581Z" fill="white"/>
</g>
</g>
<defs>
<clipPath id="clip0_72_173">
<rect width="130" height="32" fill="white" transform="translate(0.5 0.0553589)"/>
</clipPath>
</defs>
</svg>
