<svg width="130" height="33" viewBox="0 0 130 33" fill="none" xmlns="http://www.w3.org/2000/svg">
<g clip-path="url(#clip0_72_127)">
<mask id="mask0_72_127" style="mask-type:luminance" maskUnits="userSpaceOnUse" x="1" y="0" width="129" height="32">
<path d="M129.306 0.445618H1.06763V31.6651H129.306V0.445618Z" fill="white"/>
</mask>
<g mask="url(#mask0_72_127)">
<path d="M39.8669 22.2992H48.9284V19.4895H43.0876V8.90613H39.8669V22.2992Z" fill="white"/>
<path d="M54.297 20.426C53.0051 20.426 52.3319 19.2647 52.3319 17.5227C52.3319 15.7806 53.0051 14.6005 54.297 14.6005C55.5889 14.6005 56.2804 15.7806 56.2804 17.5227C56.2804 19.2647 55.5889 20.426 54.297 20.426ZM54.3152 22.5989C57.3175 22.5989 59.2826 20.4073 59.2826 17.5227C59.2826 14.638 57.3175 12.4464 54.3152 12.4464C51.3311 12.4464 49.3296 14.638 49.3296 17.5227C49.3296 20.4073 51.3311 22.5989 54.3152 22.5989Z" fill="white"/>
<path d="M64.4793 25.6147C65.8622 25.6147 67.0813 25.2963 67.9 24.5471C68.6461 23.854 69.1374 22.805 69.1374 21.3627V12.7087H66.2989V13.7389H66.2624C65.7166 12.9334 64.8796 12.4276 63.6423 12.4276C61.3315 12.4276 59.7302 14.4132 59.7302 17.223C59.7302 20.1639 61.6771 21.7747 63.7696 21.7747C64.8978 21.7747 65.6074 21.3065 66.1533 20.6696H66.2261V21.6249C66.2261 22.7863 65.6984 23.4607 64.4429 23.4607C63.4603 23.4607 62.9691 23.0298 62.8052 22.524H59.9303C60.2215 24.5283 61.9137 25.6147 64.4793 25.6147ZM64.4611 19.5083C63.3512 19.5083 62.6233 18.5716 62.6233 17.1293C62.6233 15.6683 63.3512 14.7316 64.4611 14.7316C65.6984 14.7316 66.3534 15.8181 66.3534 17.1106C66.3534 18.4592 65.753 19.5083 64.4611 19.5083Z" fill="white"/>
<path d="M74.974 20.426C73.6822 20.426 73.0089 19.2647 73.0089 17.5227C73.0089 15.7806 73.6822 14.6005 74.974 14.6005C76.266 14.6005 76.9574 15.7806 76.9574 17.5227C76.9574 19.2647 76.266 20.426 74.974 20.426ZM74.9922 22.5989C77.9946 22.5989 79.9593 20.4073 79.9593 17.5227C79.9593 14.638 77.9946 12.4464 74.9922 12.4464C72.0081 12.4464 70.0066 14.638 70.0066 17.5227C70.0066 20.4073 72.0081 22.5989 74.9922 22.5989Z" fill="white"/>
<path d="M80.8257 22.2992H83.7911V12.7086H80.8257V22.2992ZM80.8257 11.3787H83.7911V8.90613H80.8257V11.3787Z" fill="white"/>
<path d="M85.0789 25.4649H88.0443V21.3065H88.0808C88.6629 22.1119 89.5185 22.599 90.7191 22.599C93.1577 22.599 94.7772 20.6134 94.7772 17.5039C94.7772 14.6192 93.2665 12.4276 90.7922 12.4276C89.5185 12.4276 88.6085 13.0083 87.972 13.87H87.9169V12.7087H85.0789V25.4649ZM89.9552 20.2387C88.6815 20.2387 87.9534 19.1711 87.9534 17.6163C87.9534 16.0616 88.6085 14.8815 89.9008 14.8815C91.1745 14.8815 91.7744 15.9679 91.7744 17.6163C91.7744 19.246 91.0828 20.2387 89.9552 20.2387Z" fill="white"/>
<path d="M99.6055 22.599C102.044 22.599 103.845 21.5125 103.845 19.4146C103.845 16.9607 101.917 16.5299 100.279 16.2489C99.0965 16.0241 98.0412 15.9305 98.0412 15.2561C98.0412 14.6567 98.6054 14.3758 99.3327 14.3758C100.152 14.3758 100.716 14.638 100.825 15.4996H103.554C103.409 13.6078 101.99 12.4276 99.3514 12.4276C97.1491 12.4276 95.3298 13.4767 95.3298 15.4996C95.3298 17.7475 97.0581 18.197 98.6776 18.478C99.9148 18.7027 101.043 18.7964 101.043 19.6581C101.043 20.2763 100.479 20.6134 99.5876 20.6134C98.6054 20.6134 97.9868 20.1451 97.8772 19.1898H95.075C95.1659 21.3065 96.8763 22.599 99.6055 22.599Z" fill="white"/>
<path d="M107.874 22.5802C109.166 22.5802 109.984 22.0557 110.658 21.1191H110.713V22.2992H113.551V12.7086H110.585V18.0658C110.585 19.2085 109.967 19.9952 108.948 19.9952C108.001 19.9952 107.547 19.4146 107.547 18.3655V12.7086H104.599V19.0024C104.599 21.1378 105.727 22.5802 107.874 22.5802Z" fill="white"/>
<path d="M114.841 22.2992H117.807V16.9232C117.807 15.7807 118.352 14.9751 119.28 14.9751C120.172 14.9751 120.59 15.5746 120.59 16.6048V22.2992H123.557V16.9232C123.557 15.7807 124.084 14.9751 125.03 14.9751C125.922 14.9751 126.34 15.5746 126.34 16.6048V22.2992H129.306V16.0616C129.306 13.9075 128.251 12.4276 126.141 12.4276C124.939 12.4276 123.939 12.9521 123.211 14.1135H123.174C122.701 13.0832 121.773 12.4276 120.554 12.4276C119.208 12.4276 118.316 13.0832 117.734 14.076H117.679V12.7087H114.841V22.2992Z" fill="white"/>
<path fill-rule="evenodd" clip-rule="evenodd" d="M16.2307 31.6651C24.6051 31.6651 31.3938 24.6764 31.3938 16.0554C31.3938 7.43434 24.6051 0.445618 16.2307 0.445618C7.85636 0.445618 1.06763 7.43434 1.06763 16.0554C1.06763 24.6764 7.85636 31.6651 16.2307 31.6651ZM20.9611 7.7173C21.1913 6.87531 20.3976 6.37742 19.6727 6.90907L9.55375 14.3302C8.76763 14.9067 8.89127 16.0554 9.73948 16.0554H12.4041V16.0341H17.5973L13.3658 17.5711L11.5004 24.3935C11.2702 25.2355 12.0637 25.7333 12.7887 25.2016L22.9077 17.7806C23.6939 17.2041 23.5701 16.0554 22.722 16.0554H18.6811L20.9611 7.7173Z" fill="white"/>
</g>
</g>
<defs>
<clipPath id="clip0_72_127">
<rect width="129" height="32" fill="white" transform="translate(0.5 0.0553589)"/>
</clipPath>
</defs>
</svg>
