<svg width="143" height="33" viewBox="0 0 143 33" fill="none" xmlns="http://www.w3.org/2000/svg">
<g clip-path="url(#clip0_72_142)">
<mask id="mask0_72_142" style="mask-type:luminance" maskUnits="userSpaceOnUse" x="0" y="0" width="142" height="32">
<path d="M141.811 0.445618H0.97583V31.6651H141.811V0.445618Z" fill="white"/>
</mask>
<g mask="url(#mask0_72_142)">
<path fill-rule="evenodd" clip-rule="evenodd" d="M45.3938 2.4091C45.3938 1.3247 46.2605 0.445618 47.3298 0.445618H50.7023C51.4632 0.445618 52.2008 0.71309 52.7891 1.2025L53.8151 2.0558L53.8407 2.07953C53.8644 2.07143 53.8881 2.06351 53.9118 2.0558C55.7627 1.45452 58.0084 1.34017 60.3004 1.34017C62.5924 1.34017 64.8381 1.45452 66.689 2.0558C66.7128 2.06351 66.7364 2.07143 66.7601 2.07953L66.7857 2.0558L67.8117 1.2025C68.4001 0.71309 69.1376 0.445618 69.8986 0.445618H73.2711C74.3403 0.445618 75.207 1.3247 75.207 2.4091V3.6229C75.207 4.56203 74.817 5.45771 74.1325 6.09022L73.3049 6.85509C72.9008 7.22849 72.4159 7.50024 71.8891 7.64839L71.6934 7.70346C72.4603 9.55938 72.8839 11.5432 72.8839 13.1481C72.8839 19.6038 68.9456 22.3919 65.4755 24.8486C62.7428 26.7833 60.3004 28.5123 60.3004 31.6651C60.3004 28.5123 57.858 26.7833 55.1253 24.8486C51.6552 22.3919 47.7169 19.6038 47.7169 13.1481C47.7169 11.5432 48.1406 9.55938 48.9074 7.70346L48.7117 7.64839C48.185 7.50024 47.7 7.22849 47.2959 6.85509L46.4683 6.09022C45.7838 5.45771 45.3938 4.56203 45.3938 3.6229V2.4091ZM62.8171 18.4259C62.8171 18.7343 62.6846 19.0301 62.4485 19.2483C62.2126 19.4663 61.8925 19.5888 61.5587 19.5888C61.2706 19.5888 60.9927 19.4975 60.7702 19.3321C61.1489 20.36 62.1177 21.334 63.5915 19.7677C64.8925 18.3123 63.5337 15.2427 62.2098 13.4212C61.7685 12.8141 61.0441 12.5219 60.3004 12.5219C59.5567 12.5219 58.8323 12.8141 58.391 13.4212C57.0672 15.2427 55.7083 18.3123 57.0093 19.7677C58.4831 21.334 59.452 20.36 59.8306 19.3321C59.6082 19.4975 59.3302 19.5888 59.0421 19.5888C58.7083 19.5888 58.3882 19.4663 58.1523 19.2483C57.9162 19.0301 57.7837 18.7343 57.7837 18.4259H62.8171ZM55.4816 9.33938H51.976L54.7387 11.5831C55.3467 12.0767 56.2353 11.9189 56.6115 11.2504C57.0864 10.4064 56.4556 9.33938 55.4816 9.33938ZM65.1192 9.33938H68.6248L65.8621 11.5831C65.2541 12.0767 64.3655 11.9189 63.9893 11.2504C63.5144 10.4064 64.1453 9.33938 65.1192 9.33938Z" fill="white"/>
<path d="M79.3823 22.5595H82.4884V10.5478H79.3823V22.5595ZM79.3823 8.67459H82.4884V5.81799H79.3823V8.67459Z" fill="white"/>
<path d="M84.4897 26.4931H87.595V21.2014H87.6411C88.3035 22.2317 89.3763 22.9107 91.021 22.9107C94.035 22.9107 96.0901 20.4521 96.0901 16.5653C96.0901 12.819 94.1036 10.22 90.9976 10.22C89.3989 10.22 88.3035 10.9926 87.5498 12.0463H87.4811V10.5477H84.4897V26.4931ZM90.3586 20.2649C88.5087 20.2649 87.5264 18.8365 87.5264 16.659C87.5264 14.5048 88.3035 12.7956 90.2439 12.7956C92.1624 12.7956 92.9387 14.3877 92.9387 16.659C92.9387 18.9302 91.9338 20.2649 90.3586 20.2649Z" fill="white"/>
<path d="M102.286 22.9107C105.208 22.9107 107.218 21.459 107.218 19.0472C107.218 16.2375 105.048 15.6756 103.085 15.2541C101.417 14.9029 99.8647 14.8092 99.8647 13.779C99.8647 12.9126 100.664 12.4444 101.875 12.4444C103.199 12.4444 103.998 12.9126 104.135 14.2004H106.944C106.716 11.7888 105.003 10.22 101.92 10.22C99.2483 10.22 97.1472 11.4609 97.1472 14.06C97.1472 16.6824 99.2023 17.2677 101.303 17.6892C102.902 18.017 104.386 18.1341 104.386 19.2814C104.386 20.1244 103.61 20.6629 102.24 20.6629C100.847 20.6629 99.8873 20.0541 99.6821 18.6726H96.8047C96.9873 21.2248 98.8832 22.9107 102.286 22.9107Z" fill="white"/>
<path d="M119.01 22.5595V10.5477H115.904V17.4784C115.904 19.0707 115.014 20.1946 113.552 20.1946C112.228 20.1946 111.611 19.4219 111.611 18.017V10.5477H108.528V18.5556C108.528 21.178 109.99 22.8872 112.593 22.8872C114.237 22.8872 115.15 22.2551 115.95 21.1546H116.018V22.5595H119.01Z" fill="white"/>
<path d="M121.018 22.5595H124.124V15.5819C124.124 13.9897 124.969 12.9595 126.224 12.9595C127.367 12.9595 128.029 13.6619 128.029 15.02V22.5595H131.134V15.5819C131.134 13.9897 131.934 12.9595 133.236 12.9595C134.377 12.9595 135.039 13.6619 135.039 15.02V22.5595H138.145V14.4814C138.145 11.859 136.752 10.22 134.286 10.22C132.802 10.22 131.568 11.0161 130.769 12.3273H130.723C130.153 11.0629 128.965 10.22 127.481 10.22C125.859 10.22 124.718 11.0629 124.078 12.1634H124.009V10.5477H121.018V22.5595Z" fill="white"/>
<path d="M0.97583 22.5595H4.08148V5.81799H0.97583V22.5595Z" fill="white"/>
<path d="M11.6752 22.9107C15.3061 22.9107 17.7951 20.1477 17.7951 16.5653C17.7951 12.9829 15.3061 10.22 11.6752 10.22C8.04426 10.22 5.55518 12.9829 5.55518 16.5653C5.55518 20.1477 8.04426 22.9107 11.6752 22.9107ZM11.6752 20.4756C9.75701 20.4756 8.70652 18.9068 8.70652 16.5653C8.70652 14.2239 9.75701 12.6317 11.6752 12.6317C13.5706 12.6317 14.6438 14.2239 14.6438 16.5653C14.6438 18.9068 13.5706 20.4756 11.6752 20.4756Z" fill="white"/>
<path d="M24.3998 26.657C26.1353 26.657 27.6424 26.2356 28.6244 25.299C29.4921 24.4795 30.0174 23.3321 30.0174 21.6463V10.5477H27.0258V11.8121H26.9802C26.2723 10.8053 25.199 10.22 23.7375 10.22C20.7689 10.22 18.668 12.5146 18.668 16.097C18.668 19.7263 21.2256 21.8336 23.8289 21.8336C25.3132 21.8336 26.2038 21.2248 26.8888 20.4288H26.9573V21.74C26.9573 23.379 26.1124 24.2453 24.3541 24.2453C22.9154 24.2453 22.2532 23.66 22.002 22.9107H18.9192C19.2389 25.2521 21.2027 26.657 24.3998 26.657ZM24.3541 19.2814C22.7556 19.2814 21.7051 18.0873 21.7051 16.0502C21.7051 14.0365 22.7556 12.7721 24.3313 12.7721C26.2038 12.7721 27.1172 14.2707 27.1172 16.0268C27.1172 17.8063 26.3179 19.2814 24.3541 19.2814Z" fill="white"/>
<path d="M37.566 22.9107C41.1969 22.9107 43.686 20.1477 43.686 16.5653C43.686 12.9829 41.1969 10.22 37.566 10.22C33.9352 10.22 31.446 12.9829 31.446 16.5653C31.446 20.1477 33.9352 22.9107 37.566 22.9107ZM37.566 20.4756C35.6478 20.4756 34.5974 18.9068 34.5974 16.5653C34.5974 14.2239 35.6478 12.6317 37.566 12.6317C39.4614 12.6317 40.5347 14.2239 40.5347 16.5653C40.5347 18.9068 39.4614 20.4756 37.566 20.4756Z" fill="white"/>
<path d="M138.005 7.92525C138.005 7.38644 138.431 6.94965 138.957 6.94965H140.86C141.385 6.94965 141.811 7.38644 141.811 7.92525C141.811 8.464 141.385 8.90088 140.86 8.90088H138.957C138.431 8.90088 138.005 8.464 138.005 7.92525Z" fill="white"/>
</g>
</g>
<defs>
<clipPath id="clip0_72_142">
<rect width="142" height="32" fill="white" transform="translate(0.5 0.0553589)"/>
</clipPath>
</defs>
</svg>
