<svg width="68" height="69" viewBox="0 0 68 69" fill="none" xmlns="http://www.w3.org/2000/svg">
<path d="M59.9214 0.604126H8C3.58172 0.604126 0 4.18585 0 8.60413V60.5255C0 64.9438 3.58172 68.5255 8 68.5255H59.9214C64.3397 68.5255 67.9214 64.9438 67.9214 60.5255V8.60413C67.9214 4.18585 64.3397 0.604126 59.9214 0.604126Z" fill="#4386EB"/>
<path fill-rule="evenodd" clip-rule="evenodd" d="M33.8942 14.6506C33.1363 14.6506 32.4096 14.9516 31.8737 15.4875C27.9152 19.446 19.1657 28.1955 15.0366 32.3246C14.4425 32.9187 14.1087 33.7246 14.1087 34.5648C14.1087 35.4051 14.4425 36.211 15.0366 36.8051C19.1657 40.9341 27.9152 49.6836 31.8737 53.6422C32.4096 54.178 33.1363 54.4791 33.8942 54.4791V54.4833C44.8948 54.4833 53.8127 45.5655 53.8127 34.5648C53.8127 23.5642 44.8948 14.6463 33.8942 14.6463V14.6506ZM34.736 20.0885C33.9782 20.0885 33.2514 20.406 32.7155 20.9712C29.4547 24.4107 23.1565 31.0539 20.7729 33.568C20.5223 33.8324 20.3815 34.1909 20.3815 34.5648C20.3815 34.9387 20.5223 35.2973 20.7729 35.5616C23.1565 38.0758 29.4547 44.7189 32.7155 48.1584C33.2514 48.7237 33.9782 49.0412 34.736 49.0412C42.3158 49.0412 48.4605 42.5599 48.4605 34.5648C48.4605 26.5697 42.3158 20.0885 34.736 20.0885Z" fill="white"/>
<path fill-rule="evenodd" clip-rule="evenodd" d="M33.8942 32.1932C33.8942 32.5962 33.5675 32.9229 33.1644 32.9229C32.8307 32.9229 32.4368 32.9229 32.1049 32.9229C31.7082 32.9229 31.3842 32.6058 31.3754 32.2091C31.3644 31.7053 31.3492 31.007 31.3349 30.3577C31.3284 30.062 31.1442 29.7994 30.8683 29.6929C30.5923 29.5864 30.2794 29.6569 30.0758 29.8716C28.9285 31.0818 27.2573 32.8446 26.3618 33.7891C26.0184 34.1513 26.0184 34.7385 26.3618 35.1007C27.2797 36.0689 29.0189 37.9033 30.2232 39.1737C30.4308 39.3925 30.7515 39.4612 31.0305 39.3465C31.3094 39.2318 31.489 38.9572 31.4824 38.6557C31.4693 38.0541 31.4554 37.4233 31.4452 36.9526C31.4409 36.7564 31.5158 36.5666 31.6531 36.4263C31.7904 36.286 31.9784 36.2069 32.1747 36.2069C32.4885 36.2069 32.8524 36.2069 33.1644 36.2069C33.5675 36.2069 33.8942 36.5336 33.8942 36.9366V42.3751C33.8942 42.8087 34.0768 43.2197 34.3928 43.4971C34.7087 43.7744 35.125 43.8894 35.5293 43.8107C39.6721 43.0006 42.8093 39.1692 42.8093 34.5648C42.8093 29.9605 39.6721 26.1291 35.5293 25.3191C35.1251 25.2404 34.7087 25.3554 34.3929 25.6327C34.0769 25.91 33.8943 26.3211 33.8943 26.7546C33.8943 28.4333 33.8942 30.5888 33.8942 32.1932Z" fill="white"/>
</svg>
