<svg width="493" height="494" viewBox="0 0 493 494" fill="none" xmlns="http://www.w3.org/2000/svg">
<path d="M0 10.3498C0 4.82694 4.47715 0.349792 10 0.349792H449.493C455.015 0.349792 459.493 4.82694 459.493 10.3498V208.844C459.493 211.477 460.53 214.003 462.381 215.874L490.112 243.928C491.962 245.8 493 248.326 493 250.958V483.35C493 488.873 488.523 493.35 483 493.35H43.5074C37.9845 493.35 33.5074 488.873 33.5074 483.35V285.058C33.5074 282.437 32.4784 279.921 30.642 278.051L2.8653 249.767C1.0289 247.897 0 245.381 0 242.76V10.3498Z" fill="white"/>
</svg>
